<svg width="266" height="69" viewBox="0 0 266 69" fill="none" xmlns="http://www.w3.org/2000/svg">
<g filter="url(#filter0_dd_2442_247)">
<rect x="5" y="4" width="256" height="56" rx="8" fill="white"/>
<path d="M31.5 36.5C32.2879 36.5 33.0682 36.3448 33.7961 36.0433C34.5241 35.7418 35.1855 35.2998 35.7427 34.7427C36.2998 34.1855 36.7418 33.5241 37.0433 32.7961C37.3448 32.0682 37.5 31.2879 37.5 30.5C37.5 29.7121 37.3448 28.9319 37.0433 28.2039C36.7418 27.476 36.2998 26.8145 35.7427 26.2574C35.1855 25.7002 34.5241 25.2583 33.7961 24.9567C33.0682 24.6552 32.2879 24.5 31.5 24.5C29.9087 24.5 28.3826 25.1322 27.2574 26.2574C26.1322 27.3826 25.5 28.9087 25.5 30.5C25.5 32.0913 26.1322 33.6174 27.2574 34.7427C28.3826 35.8679 29.9087 36.5 31.5 36.5ZM37.82 35.406L41.4 38.986C41.4955 39.0783 41.5716 39.1887 41.6239 39.3108C41.6762 39.4328 41.7037 39.564 41.7048 39.6968C41.7058 39.8296 41.6804 39.9613 41.63 40.0841C41.5797 40.207 41.5053 40.3186 41.4114 40.4124C41.3174 40.5062 41.2057 40.5804 41.0828 40.6306C40.9599 40.6808 40.8282 40.706 40.6954 40.7048C40.5626 40.7035 40.4314 40.6758 40.3095 40.6233C40.1875 40.5708 40.0772 40.4946 39.985 40.399L36.405 36.819C34.7975 38.0669 32.7748 38.6552 30.7488 38.4642C28.7227 38.2732 26.8456 37.3173 25.4996 35.7911C24.1535 34.2648 23.4397 32.283 23.5034 30.2489C23.5672 28.2149 24.4037 26.2816 25.8427 24.8427C27.2816 23.4037 29.2149 22.5672 31.2489 22.5034C33.283 22.4397 35.2648 23.1535 36.7911 24.4996C38.3173 25.8456 39.2732 27.7227 39.4642 29.7488C39.6552 31.7748 39.0669 33.7975 37.819 35.405L37.82 35.406Z" fill="#0F172A"/>
<path d="M67.7773 32.5742H64.1543L64.1348 30.7871H67.2988C67.8327 30.7871 68.2852 30.709 68.6562 30.5527C69.0339 30.39 69.3203 30.1589 69.5156 29.8594C69.7109 29.5534 69.8086 29.1855 69.8086 28.7559C69.8086 28.2806 69.7174 27.8932 69.5352 27.5938C69.3529 27.2943 69.0729 27.0762 68.6953 26.9395C68.3242 26.8027 67.849 26.7344 67.2695 26.7344H64.8965V39H62.4453V24.7812H67.2695C68.0508 24.7812 68.7474 24.8561 69.3594 25.0059C69.9779 25.1556 70.502 25.39 70.9316 25.709C71.3678 26.0215 71.6966 26.4186 71.918 26.9004C72.1458 27.3822 72.2598 27.9551 72.2598 28.6191C72.2598 29.2051 72.1198 29.7422 71.8398 30.2305C71.5599 30.7122 71.1465 31.1061 70.5996 31.4121C70.0527 31.7181 69.3724 31.9004 68.5586 31.959L67.7773 32.5742ZM67.6699 39H63.3828L64.4863 37.0566H67.6699C68.2233 37.0566 68.6855 36.9655 69.0566 36.7832C69.4277 36.5944 69.7044 36.3372 69.8867 36.0117C70.0755 35.6797 70.1699 35.2923 70.1699 34.8496C70.1699 34.3874 70.0885 33.987 69.9258 33.6484C69.763 33.3034 69.5059 33.0397 69.1543 32.8574C68.8027 32.6686 68.3438 32.5742 67.7773 32.5742H65.0234L65.043 30.7871H68.627L69.1836 31.4609C69.9648 31.487 70.6061 31.6595 71.1074 31.9785C71.6152 32.2975 71.9928 32.7109 72.2402 33.2188C72.4876 33.7266 72.6113 34.2734 72.6113 34.8594C72.6113 35.7643 72.4128 36.5228 72.0156 37.1348C71.625 37.7467 71.0618 38.2122 70.3262 38.5312C69.5905 38.8438 68.7051 39 67.6699 39ZM77.8672 28.4336V39H75.5039V28.4336H77.8672ZM75.3477 25.6602C75.3477 25.3021 75.4648 25.0059 75.6992 24.7715C75.9401 24.5306 76.2721 24.4102 76.6953 24.4102C77.112 24.4102 77.4408 24.5306 77.6816 24.7715C77.9225 25.0059 78.043 25.3021 78.043 25.6602C78.043 26.0117 77.9225 26.3047 77.6816 26.5391C77.4408 26.7734 77.112 26.8906 76.6953 26.8906C76.2721 26.8906 75.9401 26.7734 75.6992 26.5391C75.4648 26.3047 75.3477 26.0117 75.3477 25.6602ZM80.9551 24H83.3086V36.7441L83.084 39H80.9551V24ZM90.2031 33.6191V33.8242C90.2031 34.6055 90.1152 35.3249 89.9395 35.9824C89.7702 36.6335 89.5098 37.1999 89.1582 37.6816C88.8132 38.1634 88.3835 38.5378 87.8691 38.8047C87.3613 39.0651 86.7721 39.1953 86.1016 39.1953C85.444 39.1953 84.8711 39.0716 84.3828 38.8242C83.8945 38.5768 83.4844 38.2253 83.1523 37.7695C82.8268 37.3138 82.5632 36.7702 82.3613 36.1387C82.1595 35.5072 82.0163 34.8105 81.9316 34.0488V33.3945C82.0163 32.6263 82.1595 31.9297 82.3613 31.3047C82.5632 30.6732 82.8268 30.1296 83.1523 29.6738C83.4844 29.2116 83.8913 28.8568 84.373 28.6094C84.8613 28.362 85.431 28.2383 86.082 28.2383C86.7591 28.2383 87.3548 28.3685 87.8691 28.6289C88.39 28.8893 88.8229 29.2604 89.168 29.7422C89.513 30.2174 89.7702 30.7839 89.9395 31.4414C90.1152 32.099 90.2031 32.8249 90.2031 33.6191ZM87.8496 33.8242V33.6191C87.8496 33.1439 87.8105 32.6979 87.7324 32.2812C87.6543 31.8581 87.5241 31.487 87.3418 31.168C87.166 30.849 86.9251 30.5983 86.6191 30.416C86.3197 30.2272 85.9453 30.1328 85.4961 30.1328C85.0794 30.1328 84.7214 30.2044 84.4219 30.3477C84.1224 30.4909 83.8717 30.6862 83.6699 30.9336C83.4681 31.181 83.3086 31.4674 83.1914 31.793C83.0807 32.1185 83.0059 32.4701 82.9668 32.8477V34.6152C83.0254 35.1035 83.1491 35.5527 83.3379 35.9629C83.5332 36.3665 83.8066 36.6921 84.1582 36.9395C84.5098 37.1803 84.9622 37.3008 85.5156 37.3008C85.9518 37.3008 86.3197 37.2129 86.6191 37.0371C86.9186 36.8613 87.1562 36.6172 87.332 36.3047C87.5143 35.9857 87.6445 35.6146 87.7227 35.1914C87.8073 34.7682 87.8496 34.3125 87.8496 33.8242ZM97.3535 39.1953C96.5723 39.1953 95.8659 39.0684 95.2344 38.8145C94.6094 38.554 94.0755 38.1927 93.6328 37.7305C93.1966 37.2682 92.8613 36.7246 92.627 36.0996C92.3926 35.4746 92.2754 34.8008 92.2754 34.0781V33.6875C92.2754 32.8607 92.3958 32.112 92.6367 31.4414C92.8776 30.7708 93.2129 30.1979 93.6426 29.7227C94.0723 29.2409 94.5801 28.873 95.166 28.6191C95.752 28.3652 96.3867 28.2383 97.0703 28.2383C97.8255 28.2383 98.4863 28.3652 99.0527 28.6191C99.6191 28.873 100.088 29.2311 100.459 29.6934C100.837 30.1491 101.117 30.6927 101.299 31.3242C101.488 31.9557 101.582 32.6523 101.582 33.4141V34.4199H93.418V32.7305H99.2578V32.5449C99.2448 32.1217 99.1602 31.7246 99.0039 31.3535C98.8542 30.9824 98.623 30.6829 98.3105 30.4551C97.998 30.2272 97.5814 30.1133 97.0605 30.1133C96.6699 30.1133 96.3216 30.1979 96.0156 30.3672C95.7161 30.5299 95.4655 30.7676 95.2637 31.0801C95.0618 31.3926 94.9056 31.7702 94.7949 32.2129C94.6908 32.6491 94.6387 33.1406 94.6387 33.6875V34.0781C94.6387 34.5404 94.7005 34.9701 94.8242 35.3672C94.9544 35.7578 95.1432 36.0996 95.3906 36.3926C95.638 36.6855 95.9375 36.9167 96.2891 37.0859C96.6406 37.2487 97.041 37.3301 97.4902 37.3301C98.0566 37.3301 98.5612 37.2161 99.0039 36.9883C99.4466 36.7604 99.8307 36.4382 100.156 36.0215L101.396 37.2227C101.169 37.5547 100.872 37.8737 100.508 38.1797C100.143 38.4792 99.6973 38.7233 99.1699 38.9121C98.6491 39.1009 98.0436 39.1953 97.3535 39.1953ZM106.252 30.6895V39H103.898V28.4336H106.115L106.252 30.6895ZM105.832 33.3262L105.07 33.3164C105.077 32.5677 105.181 31.8809 105.383 31.2559C105.591 30.6309 105.878 30.0938 106.242 29.6445C106.613 29.1953 107.056 28.8503 107.57 28.6094C108.085 28.362 108.658 28.2383 109.289 28.2383C109.797 28.2383 110.256 28.3099 110.666 28.4531C111.083 28.5898 111.438 28.8145 111.73 29.127C112.03 29.4395 112.258 29.8464 112.414 30.3477C112.57 30.8424 112.648 31.4512 112.648 32.1738V39H110.285V32.1641C110.285 31.6562 110.21 31.2559 110.061 30.9629C109.917 30.6634 109.706 30.4518 109.426 30.3281C109.152 30.1979 108.811 30.1328 108.4 30.1328C107.997 30.1328 107.635 30.2174 107.316 30.3867C106.997 30.556 106.727 30.7871 106.506 31.0801C106.291 31.373 106.125 31.7116 106.008 32.0957C105.891 32.4798 105.832 32.89 105.832 33.3262ZM121.996 36.8125V24H124.359V39H122.221L121.996 36.8125ZM115.121 33.834V33.6289C115.121 32.8281 115.215 32.099 115.404 31.4414C115.593 30.7773 115.867 30.2077 116.225 29.7324C116.583 29.2507 117.019 28.8828 117.533 28.6289C118.048 28.3685 118.627 28.2383 119.271 28.2383C119.91 28.2383 120.469 28.362 120.951 28.6094C121.433 28.8568 121.843 29.2116 122.182 29.6738C122.52 30.1296 122.79 30.6764 122.992 31.3145C123.194 31.946 123.337 32.6491 123.422 33.4238V34.0781C123.337 34.8333 123.194 35.5234 122.992 36.1484C122.79 36.7734 122.52 37.3138 122.182 37.7695C121.843 38.2253 121.43 38.5768 120.941 38.8242C120.46 39.0716 119.896 39.1953 119.252 39.1953C118.614 39.1953 118.038 39.0618 117.523 38.7949C117.016 38.528 116.583 38.1536 116.225 37.6719C115.867 37.1901 115.593 36.6237 115.404 35.9727C115.215 35.3151 115.121 34.6022 115.121 33.834ZM117.475 33.6289V33.834C117.475 34.3158 117.517 34.765 117.602 35.1816C117.693 35.5983 117.833 35.9661 118.021 36.2852C118.21 36.5977 118.454 36.8451 118.754 37.0273C119.06 37.2031 119.424 37.291 119.848 37.291C120.382 37.291 120.821 37.1738 121.166 36.9395C121.511 36.7051 121.781 36.3893 121.977 35.9922C122.178 35.5885 122.315 35.1393 122.387 34.6445V32.877C122.348 32.4928 122.266 32.1348 122.143 31.8027C122.025 31.4707 121.866 31.181 121.664 30.9336C121.462 30.6797 121.212 30.4844 120.912 30.3477C120.619 30.2044 120.271 30.1328 119.867 30.1328C119.438 30.1328 119.073 30.224 118.773 30.4062C118.474 30.5885 118.227 30.8392 118.031 31.1582C117.842 31.4772 117.702 31.8483 117.611 32.2715C117.52 32.6947 117.475 33.1471 117.475 33.6289ZM133.678 36.5098V28.4336H136.041V39H133.814L133.678 36.5098ZM134.01 34.3125L134.801 34.293C134.801 35.0026 134.723 35.6569 134.566 36.2559C134.41 36.8483 134.169 37.3659 133.844 37.8086C133.518 38.2448 133.102 38.5866 132.594 38.834C132.086 39.0749 131.477 39.1953 130.768 39.1953C130.253 39.1953 129.781 39.1204 129.352 38.9707C128.922 38.821 128.551 38.5898 128.238 38.2773C127.932 37.9648 127.695 37.5579 127.525 37.0566C127.356 36.5553 127.271 35.9564 127.271 35.2598V28.4336H129.625V35.2793C129.625 35.6634 129.671 35.9857 129.762 36.2461C129.853 36.5 129.977 36.7051 130.133 36.8613C130.289 37.0176 130.471 37.1283 130.68 37.1934C130.888 37.2585 131.109 37.291 131.344 37.291C132.014 37.291 132.542 37.1608 132.926 36.9004C133.316 36.6335 133.593 36.2754 133.756 35.8262C133.925 35.377 134.01 34.8724 134.01 34.3125ZM141.307 30.582V39H138.953V28.4336H141.17L141.307 30.582ZM140.926 33.3262L140.125 33.3164C140.125 32.5872 140.216 31.9134 140.398 31.2949C140.581 30.6764 140.848 30.1393 141.199 29.6836C141.551 29.2214 141.987 28.8665 142.508 28.6191C143.035 28.3652 143.644 28.2383 144.334 28.2383C144.816 28.2383 145.255 28.3099 145.652 28.4531C146.056 28.5898 146.404 28.8079 146.697 29.1074C146.997 29.4069 147.225 29.791 147.381 30.2598C147.544 30.7285 147.625 31.2949 147.625 31.959V39H145.271V32.1641C145.271 31.6497 145.193 31.2461 145.037 30.9531C144.887 30.6602 144.669 30.4518 144.383 30.3281C144.103 30.1979 143.768 30.1328 143.377 30.1328C142.934 30.1328 142.557 30.2174 142.244 30.3867C141.938 30.556 141.688 30.7871 141.492 31.0801C141.297 31.373 141.154 31.7116 141.062 32.0957C140.971 32.4798 140.926 32.89 140.926 33.3262ZM147.479 32.7012L146.375 32.9453C146.375 32.3073 146.463 31.7051 146.639 31.1387C146.821 30.5658 147.085 30.0645 147.43 29.6348C147.781 29.1986 148.214 28.8568 148.729 28.6094C149.243 28.362 149.832 28.2383 150.496 28.2383C151.036 28.2383 151.518 28.3132 151.941 28.4629C152.371 28.6061 152.736 28.834 153.035 29.1465C153.335 29.459 153.562 29.8659 153.719 30.3672C153.875 30.862 153.953 31.4609 153.953 32.1641V39H151.59V32.1543C151.59 31.6204 151.512 31.207 151.355 30.9141C151.206 30.6211 150.991 30.4193 150.711 30.3086C150.431 30.1914 150.096 30.1328 149.705 30.1328C149.34 30.1328 149.018 30.2012 148.738 30.3379C148.465 30.4681 148.234 30.6536 148.045 30.8945C147.856 31.1289 147.713 31.3991 147.615 31.7051C147.524 32.0111 147.479 32.3431 147.479 32.7012ZM167.199 28.4336V30.1523H161.242V28.4336H167.199ZM162.961 25.8457H165.314V36.0801C165.314 36.4056 165.36 36.6562 165.451 36.832C165.549 37.0013 165.682 37.1152 165.852 37.1738C166.021 37.2324 166.219 37.2617 166.447 37.2617C166.61 37.2617 166.766 37.252 166.916 37.2324C167.066 37.2129 167.186 37.1934 167.277 37.1738L167.287 38.9707C167.092 39.0293 166.864 39.0814 166.604 39.127C166.35 39.1725 166.057 39.1953 165.725 39.1953C165.184 39.1953 164.706 39.1009 164.289 38.9121C163.872 38.7168 163.547 38.401 163.312 37.9648C163.078 37.5286 162.961 36.9492 162.961 36.2266V25.8457ZM174.174 39.1953C173.393 39.1953 172.686 39.0684 172.055 38.8145C171.43 38.554 170.896 38.1927 170.453 37.7305C170.017 37.2682 169.682 36.7246 169.447 36.0996C169.213 35.4746 169.096 34.8008 169.096 34.0781V33.6875C169.096 32.8607 169.216 32.112 169.457 31.4414C169.698 30.7708 170.033 30.1979 170.463 29.7227C170.893 29.2409 171.4 28.873 171.986 28.6191C172.572 28.3652 173.207 28.2383 173.891 28.2383C174.646 28.2383 175.307 28.3652 175.873 28.6191C176.439 28.873 176.908 29.2311 177.279 29.6934C177.657 30.1491 177.937 30.6927 178.119 31.3242C178.308 31.9557 178.402 32.6523 178.402 33.4141V34.4199H170.238V32.7305H176.078V32.5449C176.065 32.1217 175.98 31.7246 175.824 31.3535C175.674 30.9824 175.443 30.6829 175.131 30.4551C174.818 30.2272 174.402 30.1133 173.881 30.1133C173.49 30.1133 173.142 30.1979 172.836 30.3672C172.536 30.5299 172.286 30.7676 172.084 31.0801C171.882 31.3926 171.726 31.7702 171.615 32.2129C171.511 32.6491 171.459 33.1406 171.459 33.6875V34.0781C171.459 34.5404 171.521 34.9701 171.645 35.3672C171.775 35.7578 171.964 36.0996 172.211 36.3926C172.458 36.6855 172.758 36.9167 173.109 37.0859C173.461 37.2487 173.861 37.3301 174.311 37.3301C174.877 37.3301 175.382 37.2161 175.824 36.9883C176.267 36.7604 176.651 36.4382 176.977 36.0215L178.217 37.2227C177.989 37.5547 177.693 37.8737 177.328 38.1797C176.964 38.4792 176.518 38.7233 175.99 38.9121C175.469 39.1009 174.864 39.1953 174.174 39.1953ZM183.258 24V39H180.895V24H183.258ZM188.855 24V39H186.492V24H188.855ZM198.291 36.5098V28.4336H200.654V39H198.428L198.291 36.5098ZM198.623 34.3125L199.414 34.293C199.414 35.0026 199.336 35.6569 199.18 36.2559C199.023 36.8483 198.783 37.3659 198.457 37.8086C198.132 38.2448 197.715 38.5866 197.207 38.834C196.699 39.0749 196.09 39.1953 195.381 39.1953C194.867 39.1953 194.395 39.1204 193.965 38.9707C193.535 38.821 193.164 38.5898 192.852 38.2773C192.546 37.9648 192.308 37.5579 192.139 37.0566C191.969 36.5553 191.885 35.9564 191.885 35.2598V28.4336H194.238V35.2793C194.238 35.6634 194.284 35.9857 194.375 36.2461C194.466 36.5 194.59 36.7051 194.746 36.8613C194.902 37.0176 195.085 37.1283 195.293 37.1934C195.501 37.2585 195.723 37.291 195.957 37.291C196.628 37.291 197.155 37.1608 197.539 36.9004C197.93 36.6335 198.206 36.2754 198.369 35.8262C198.538 35.377 198.623 34.8724 198.623 34.3125ZM209.494 36.1387C209.494 35.9043 209.436 35.6927 209.318 35.5039C209.201 35.3086 208.977 35.1328 208.645 34.9766C208.319 34.8203 207.837 34.6771 207.199 34.5469C206.639 34.4232 206.125 34.2767 205.656 34.1074C205.194 33.9316 204.797 33.7201 204.465 33.4727C204.133 33.2253 203.876 32.9323 203.693 32.5938C203.511 32.2552 203.42 31.8646 203.42 31.4219C203.42 30.9922 203.514 30.5853 203.703 30.2012C203.892 29.8171 204.162 29.4785 204.514 29.1855C204.865 28.8926 205.292 28.6615 205.793 28.4922C206.301 28.3229 206.867 28.2383 207.492 28.2383C208.378 28.2383 209.136 28.388 209.768 28.6875C210.406 28.9805 210.894 29.3809 211.232 29.8887C211.571 30.39 211.74 30.9564 211.74 31.5879H209.387C209.387 31.3079 209.315 31.0475 209.172 30.8066C209.035 30.5592 208.827 30.3607 208.547 30.2109C208.267 30.0547 207.915 29.9766 207.492 29.9766C207.089 29.9766 206.753 30.0417 206.486 30.1719C206.226 30.2956 206.031 30.4583 205.9 30.6602C205.777 30.862 205.715 31.0833 205.715 31.3242C205.715 31.5 205.747 31.6595 205.812 31.8027C205.884 31.9395 206.001 32.0664 206.164 32.1836C206.327 32.2943 206.548 32.3984 206.828 32.4961C207.115 32.5938 207.473 32.6882 207.902 32.7793C208.71 32.9486 209.403 33.1667 209.982 33.4336C210.568 33.694 211.018 34.0326 211.33 34.4492C211.643 34.8594 211.799 35.3802 211.799 36.0117C211.799 36.4805 211.698 36.9102 211.496 37.3008C211.301 37.6849 211.014 38.0202 210.637 38.3066C210.259 38.5866 209.807 38.8047 209.279 38.9609C208.758 39.1172 208.173 39.1953 207.521 39.1953C206.564 39.1953 205.754 39.026 205.09 38.6875C204.426 38.3424 203.921 37.903 203.576 37.3691C203.238 36.8288 203.068 36.2689 203.068 35.6895H205.344C205.37 36.1257 205.49 36.474 205.705 36.7344C205.926 36.9883 206.2 37.1738 206.525 37.291C206.857 37.4017 207.199 37.457 207.551 37.457C207.974 37.457 208.329 37.4017 208.615 37.291C208.902 37.1738 209.12 37.0176 209.27 36.8223C209.419 36.6204 209.494 36.3926 209.494 36.1387Z" fill="#0F172A"/>
<path d="M236.586 30.6569L232.636 26.7069C232.454 26.5183 232.353 26.2657 232.355 26.0035C232.358 25.7413 232.463 25.4905 232.648 25.3051C232.834 25.1197 233.084 25.0145 233.347 25.0122C233.609 25.01 233.861 25.1108 234.05 25.2929L239.707 30.9499C239.8 31.0426 239.874 31.1527 239.925 31.2741C239.975 31.3954 240.001 31.5255 240.001 31.6569C240.001 31.7883 239.975 31.9184 239.925 32.0398C239.874 32.1611 239.8 32.2713 239.707 32.3639L234.05 38.0209C233.958 38.1164 233.847 38.1926 233.725 38.245C233.603 38.2974 233.472 38.325 233.339 38.3262C233.207 38.3273 233.075 38.302 232.952 38.2517C232.829 38.2015 232.717 38.1272 232.624 38.0333C232.53 37.9394 232.455 37.8278 232.405 37.7049C232.355 37.582 232.33 37.4503 232.331 37.3175C232.332 37.1847 232.359 37.0535 232.412 36.9315C232.464 36.8095 232.54 36.6992 232.636 36.6069L236.586 32.6569H227C226.735 32.6569 226.48 32.5516 226.293 32.364C226.105 32.1765 226 31.9221 226 31.6569C226 31.3917 226.105 31.1373 226.293 30.9498C226.48 30.7623 226.735 30.6569 227 30.6569H236.586Z" fill="#0F172A"/>
</g>
<defs>
<filter id="filter0_dd_2442_247" x="0" y="0" width="266" height="69" filterUnits="userSpaceOnUse" color-interpolation-filters="sRGB">
<feFlood flood-opacity="0" result="BackgroundImageFix"/>
<feColorMatrix in="SourceAlpha" type="matrix" values="0 0 0 0 0 0 0 0 0 0 0 0 0 0 0 0 0 0 127 0" result="hardAlpha"/>
<feOffset/>
<feGaussianBlur stdDeviation="2"/>
<feColorMatrix type="matrix" values="0 0 0 0 0 0 0 0 0 0 0 0 0 0 0 0 0 0 0.07 0"/>
<feBlend mode="normal" in2="BackgroundImageFix" result="effect1_dropShadow_2442_247"/>
<feColorMatrix in="SourceAlpha" type="matrix" values="0 0 0 0 0 0 0 0 0 0 0 0 0 0 0 0 0 0 127 0" result="hardAlpha"/>
<feMorphology radius="1" operator="erode" in="SourceAlpha" result="effect2_dropShadow_2442_247"/>
<feOffset dy="4"/>
<feGaussianBlur stdDeviation="3"/>
<feColorMatrix type="matrix" values="0 0 0 0 0 0 0 0 0 0 0 0 0 0 0 0 0 0 0.1 0"/>
<feBlend mode="normal" in2="effect1_dropShadow_2442_247" result="effect2_dropShadow_2442_247"/>
<feBlend mode="normal" in="SourceGraphic" in2="effect2_dropShadow_2442_247" result="shape"/>
</filter>
</defs>
</svg>
